<svg xmlns="http://www.w3.org/2000/svg" width="138" height="106.295" viewBox="0 0 138 106.295"><g transform="translate(-14.173 -14.173)"><path d="M480.029,14.173l11.047,27.194h-6.957l1.475,9.823h-8.406l-2.344-18.562H482.8Z" transform="translate(-394.728)" fill="#fc0"/><path d="M501.2,537.164,490.156,509.97h6.957l-1.859-9.487h8.377l2.756,18.226h-7.959Z" transform="translate(-407.847 -416.696)" fill="#fc0"/><g transform="translate(14.173 54.256)"><path d="M14.173,316.184l4.905-5.857a13.741,13.741,0,0,0,8.639,3.624c1.1,0,1.867-.4,1.867-1.135,0-.805-.476-1.062-4.21-2.453-4.759-1.757-6.992-3.441-6.992-7.211a7.955,7.955,0,0,1,2.416-5.674,12.655,12.655,0,0,1,9.115-3.294,17.6,17.6,0,0,1,11.421,3.843l-4.905,5.857a12.324,12.324,0,0,0-7.394-2.855c-1.1,0-1.867.293-1.867,1.025,0,.769.549.915,4.1,2.233,4.356,1.611,7.138,3.441,7.138,7.358a8.321,8.321,0,0,1-2.453,6c-1.94,1.94-5.088,3.185-9.151,3.185a18.722,18.722,0,0,1-12.629-4.649" transform="translate(-14.173 -294.185)" fill="#54565a"/><path d="M193.944,297.765h8.565l-2.453,9.041h7.834l2.453-9.041h8.565l-6.882,25.623h-8.565l2.453-9.188H198.08l-2.453,9.188h-8.566Z" transform="translate(-162.313 -297.252)" fill="#54565a"/><path d="M387.742,296.487h8.492l3.88,25.806H391l-.439-3.441h-8.968l-2.233,3.441h-9.334Zm2.343,16.289-.7-6.223-3.99,6.223Z" transform="translate(-319.086 -296.158)" fill="#54565a"/><path d="M600.431,316.067h-2.123l-1.977,7.321h-8.565l6.882-25.623h9.993c4.722,0,7.724,1.025,9.444,2.745a7.338,7.338,0,0,1,2.013,5.344,8.577,8.577,0,0,1-2.489,6.333,11.29,11.29,0,0,1-4.649,2.672l3.551,8.529h-9.224Zm2.6-6.113a5.092,5.092,0,0,0,3.624-1.171,2.465,2.465,0,0,0,.732-1.757,1.88,1.88,0,0,0-.549-1.354,3.526,3.526,0,0,0-2.526-.732h-3.038l-1.354,5.015Z" transform="translate(-505.658 -297.253)" fill="#54565a"/><path d="M769.886,317.385l14.605-12.592h-10.8l1.9-7.028h22.732l-1.611,6L782.075,316.36h11.238l-1.867,7.028H768.275Z" transform="translate(-660.328 -297.252)" fill="#54565a"/><path d="M619.5,560.9h4.246l-1.135,4.209h-4.246Z" transform="translate(-531.876 -522.72)" fill="#54565a"/><path d="M670.492,500.806H674.5l2.91,6.113,1.647-6.113H683.3l-3.441,12.812h-3.807l-3.038-6.369-1.72,6.369h-4.246Z" transform="translate(-573.594 -471.229)" fill="#54565a"/><path d="M779.91,500.806h10.927l-.952,3.514h-6.717l-.348,1.3h6.26l-.824,3.093H782l-.384,1.391h6.808l-.933,3.514H776.469Z" transform="translate(-667.349 -471.229)" fill="#54565a"/><path d="M885.862,504.429h-3.77l.97-3.624h11.823l-.97,3.624h-3.77l-2.471,9.188h-4.283Z" transform="translate(-757.852 -471.228)" fill="#54565a"/></g></g></svg>