<?xml version="1.0" encoding="UTF-8"?>
<svg xmlns="http://www.w3.org/2000/svg" xmlns:xlink="http://www.w3.org/1999/xlink" version="1.1" id="Capa_1" x="0px" y="0px" viewBox="0 0 512 512" style="enable-background:new 0 0 512 512;" xml:space="preserve" width="75" height="75">
    <g>
        <rect x="317" y="60" style="fill:none;stroke:#000000;stroke-width:30;stroke-miterlimit:10;" width="180" height="392"/>
        <path style="fill:none;stroke:#000000;stroke-width:30;stroke-miterlimit:10;" d="M155.858,169.146L197,272v120H15V122h71.223&#10;&#9;&#9;C116.89,122,144.469,140.671,155.858,169.146z"/>
        <polyline style="fill:none;stroke:#000000;stroke-width:30;stroke-miterlimit:10;" points="197,392 197,452 137,452 137,392 &#9;"/>
        <line style="fill:none;stroke:#000000;stroke-width:30;stroke-miterlimit:10;" x1="77" y1="332" x2="77" y2="272"/>
        <line style="fill:none;stroke:#000000;stroke-width:30;stroke-miterlimit:10;" x1="137" y1="332" x2="137" y2="272"/>
        <line style="fill:none;stroke:#000000;stroke-width:30;stroke-miterlimit:10;" x1="197" y1="332" x2="15" y2="332"/>
        <line style="fill:none;stroke:#000000;stroke-width:30;stroke-miterlimit:10;" x1="173" y1="212" x2="15" y2="212"/>
        <line style="fill:none;stroke:#000000;stroke-width:30;stroke-miterlimit:10;" x1="173" y1="212" x2="227" y2="212"/>
        <line style="fill:none;stroke:#000000;stroke-width:30;stroke-miterlimit:10;" x1="197" y1="272" x2="15" y2="272"/>
        <path style="fill:none;stroke:#000000;stroke-width:30;stroke-miterlimit:10;" d="M407,300v54.5c0,20.711-16.789,37.5-37.5,37.5&#10;&#9;&#9;h-75c-20.711,0-37.5-16.789-37.5-37.5v-45c0-20.711-16.789-37.5-37.5-37.5H197"/>
        <polyline style="fill:none;stroke:#000000;stroke-width:30;stroke-miterlimit:10;" points="428.213,175.656 396.393,207.476 &#10;&#9;&#9;417.607,228.689 385.787,260.509 &#9;"/>
        <line style="fill:none;stroke:#000000;stroke-width:30;stroke-miterlimit:10;" x1="317" y1="120" x2="497" y2="120"/>
        <line style="fill:none;stroke:#000000;stroke-width:30;stroke-miterlimit:10;" x1="317" y1="315" x2="362" y2="315"/>
        <line style="fill:none;stroke:#000000;stroke-width:30;stroke-miterlimit:10;" x1="452" y1="315" x2="497" y2="315"/>
    </g>
</svg>
