<?xml version="1.0" encoding="UTF-8"?>
<svg xmlns="http://www.w3.org/2000/svg" xmlns:xlink="http://www.w3.org/1999/xlink" version="1.1" id="Layer_1" x="0px" y="0px" viewBox="0 0 510 510" style="enable-background:new 0 0 510 510;" xml:space="preserve" width="75" height="75">
    <g>
        <g>
            <path style="fill:none;stroke:#000000;stroke-width:30;stroke-miterlimit:10;" d="M435,165L435,165c-33.137,0-60-26.863-60-60V60&#10;&#9;&#9;&#9;h120v45C495,138.137,468.137,165,435,165z"/>
            <line style="fill:none;stroke:#000000;stroke-width:30;stroke-miterlimit:10;" x1="405" y1="0" x2="405" y2="60"/>
            <line style="fill:none;stroke:#000000;stroke-width:30;stroke-miterlimit:10;" x1="465" y1="0" x2="465" y2="60"/>
            <line style="fill:none;stroke:#000000;stroke-width:30;stroke-miterlimit:10;" x1="345" y1="435" x2="285" y2="435"/>
            <path style="fill:none;stroke:#000000;stroke-width:30;stroke-miterlimit:10;" d="M285,315h133.5c42.25,0,76.5,34.25,76.5,76.5&#10;&#9;&#9;&#9;V435h-60"/>
            <polyline style="fill:none;stroke:#000000;stroke-width:30;stroke-miterlimit:10;" points="285,225 345,225 405,315 285,315 &#9;&#9;"/>
            <circle style="fill:none;stroke:#000000;stroke-width:30;stroke-miterlimit:10;" cx="390" cy="450" r="45"/>
            <line style="fill:none;stroke:#000000;stroke-width:30;stroke-miterlimit:10;" x1="0" y1="495" x2="510" y2="495"/>
            <rect x="15" y="45" style="fill:none;stroke:#000000;stroke-width:30;stroke-miterlimit:10;" width="270" height="450"/>
            <line style="fill:none;stroke:#000000;stroke-width:30;stroke-miterlimit:10;" x1="495" y1="375" x2="450" y2="375"/>
            <path style="fill:none;stroke:#000000;stroke-width:30;stroke-miterlimit:10;" d="M150,358c0,0-72-32-75-103&#10;&#9;&#9;&#9;c-1.749-41.385,33.578-75,75-75s76.749,33.615,75,75C222,326,150,358,150,358z"/>
            <line style="fill:none;stroke:#000000;stroke-width:30;stroke-miterlimit:10;" x1="150" y1="240" x2="150" y2="270"/>
            <polyline style="fill:none;stroke:#000000;stroke-width:30;stroke-miterlimit:10;" points="435,165 435,255 360,255 &#9;&#9;"/>
            <line style="fill:none;stroke:#000000;stroke-width:30;stroke-miterlimit:10;" x1="15" y1="120" x2="285" y2="120"/>
            <line style="fill:none;stroke:#000000;stroke-width:30;stroke-miterlimit:10;" x1="15" y1="420" x2="285" y2="420"/>
            <line style="fill:none;stroke:#000000;stroke-width:30;stroke-miterlimit:10;" x1="75" y1="360" x2="225" y2="360"/>
        </g>
    </g>
</svg>
