<?xml version="1.0" encoding="UTF-8"?>
<svg xmlns="http://www.w3.org/2000/svg" xmlns:xlink="http://www.w3.org/1999/xlink" version="1.1" id="Layer_1" x="0px" y="0px" viewBox="0 0 512 512" style="enable-background:new 0 0 512 512;" xml:space="preserve" width="75" height="65">
	<g>
		<path style="fill:none;stroke:#000000;stroke-width:40;stroke-linecap:round;stroke-linejoin:round;stroke-miterlimit:10;" d="&#10;&#9;&#9;M427.339,69.227C467.414,111.521,492,168.636,492,231.5c0,130.168-105.384,235.723-235.487,235.999&#10;&#9;&#9;C126.125,467.777,20.725,363.22,20.004,232.834c-0.35-63.362,24.277-120.963,64.604-163.55C99.649,53.4,120.63,44.5,142.506,44.5&#10;&#9;&#9;h226.99C391.344,44.5,412.311,53.368,427.339,69.227z M256,191.5c-18.225,0-33,14.775-33,33s14.775,33,33,33s33-14.775,33-33&#10;&#9;&#9;S274.225,191.5,256,191.5z M416,224.5c0,18.225-14.775,33-33,33s-33-14.775-33-33s14.775-33,33-33S416,206.275,416,224.5z&#10;&#9;&#9; M162,224.5c0,18.225-14.775,33-33,33s-33-14.775-33-33s14.775-33,33-33S162,206.275,162,224.5z M354,339.5&#10;&#9;&#9;c0,18.225-14.775,33-33,33s-33-14.775-33-33s14.775-33,33-33S354,321.275,354,339.5z M224,339.5c0,18.225-14.775,33-33,33&#10;&#9;&#9;s-33-14.775-33-33s14.775-33,33-33S224,321.275,224,339.5z"/>
			<line style="fill:none;stroke:#000000;stroke-width:40;stroke-linecap:round;stroke-linejoin:round;stroke-miterlimit:10;" x1="194" y1="128.5" x2="194" y2="128.5"/>
			<line style="fill:none;stroke:#000000;stroke-width:40;stroke-linecap:round;stroke-linejoin:round;stroke-miterlimit:10;" x1="319" y1="128.5" x2="319" y2="128.5"/>
	</g>
</svg>
